<?xml version="1.0" encoding="UTF-8"?>
<svg width="128" height="128" viewBox="0 0 128 128" fill="none" xmlns="http://www.w3.org/2000/svg">
  <path d="M64 8C32 8 8 32 8 64C8 96 32 120 64 120C96 120 120 96 120 64C120 32 96 8 64 8ZM64 112C36.4 112 16 91.6 16 64C16 36.4 36.4 16 64 16C91.6 16 112 36.4 112 64C112 91.6 91.6 112 64 112Z" fill="#a8e6cf"/>
  <path d="M64 24C41.9 24 24 41.9 24 64C24 86.1 41.9 104 64 104C86.1 104 104 86.1 104 64C104 41.9 86.1 24 64 24ZM64 96C47.4 96 32 80.6 32 64C32 47.4 47.4 32 64 32C80.6 32 96 47.4 96 64C96 80.6 80.6 96 64 96Z" fill="#a8e6cf"/>
</svg> 