<?xml version="1.0" encoding="UTF-8"?>
<svg width="160" height="160" viewBox="0 0 160 160" fill="none" xmlns="http://www.w3.org/2000/svg">
  <path d="M80 16C44.7 16 16 44.7 16 80C16 115.3 44.7 144 80 144C115.3 144 144 115.3 144 80C144 44.7 115.3 16 80 16ZM80 136C48.5 136 24 111.5 24 80C24 48.5 48.5 24 80 24C111.5 24 136 48.5 136 80C136 111.5 111.5 136 80 136Z" fill="#a8e6cf"/>
  <path d="M80 32C52.4 32 32 52.4 32 80C32 107.6 52.4 128 80 128C107.6 128 128 107.6 128 80C128 52.4 107.6 32 80 32ZM80 120C57.9 120 40 102.1 40 80C40 57.9 57.9 40 80 40C102.1 40 120 57.9 120 80C120 102.1 102.1 120 80 120Z" fill="#a8e6cf"/>
</svg> 