<?xml version="1.0" encoding="UTF-8"?>
<svg width="160" height="160" viewBox="0 0 160 160" fill="none" xmlns="http://www.w3.org/2000/svg">
  <path d="M80 20C44.7 20 20 44.7 20 80C20 115.3 44.7 140 80 140C115.3 140 140 115.3 140 80C140 44.7 115.3 20 80 20ZM80 132C48.5 132 28 111.5 28 80C28 48.5 48.5 28 80 28C111.5 28 132 48.5 132 80C132 111.5 111.5 132 80 132Z" fill="#a8e6cf"/>
  <path d="M80 40C52.4 40 40 52.4 40 80C40 107.6 52.4 120 80 120C107.6 120 120 107.6 120 80C120 52.4 107.6 40 80 40ZM80 112C57.9 112 48 102.1 48 80C48 57.9 57.9 48 80 48C102.1 48 112 57.9 112 80C112 102.1 102.1 112 80 112Z" fill="#a8e6cf"/>
</svg> 