<?xml version="1.0" encoding="UTF-8"?>
<svg width="96" height="96" viewBox="0 0 96 96" fill="none" xmlns="http://www.w3.org/2000/svg">
  <path d="M48 12C27.5 12 12 27.5 12 48C12 68.5 27.5 84 48 84C68.5 84 84 68.5 84 48C84 27.5 68.5 12 48 12ZM48 76C36.4 76 24 63.6 24 48C24 32.4 36.4 20 48 20C63.6 20 76 32.4 76 48C76 63.6 63.6 76 48 76Z" fill="#a8e6cf"/>
  <path d="M48 24C34.7 24 24 34.7 24 48C24 61.3 34.7 72 48 72C61.3 72 72 61.3 72 48C72 34.7 61.3 24 48 24ZM48 64C39.2 64 32 56.8 32 48C32 39.2 39.2 32 48 32C56.8 32 64 39.2 64 48C64 56.8 56.8 64 48 64Z" fill="#a8e6cf"/>
</svg> 