<?xml version="1.0" encoding="UTF-8"?>
<svg width="128" height="128" viewBox="0 0 128 128" fill="none" xmlns="http://www.w3.org/2000/svg">
  <path d="M64 24C35.3 24 24 35.3 24 64C24 92.7 35.3 104 64 104C92.7 104 104 92.7 104 64C104 35.3 92.7 24 64 24ZM64 96C40.3 96 32 87.7 32 64C32 40.3 40.3 32 64 32C87.7 32 96 40.3 96 64C96 87.7 87.7 96 64 96Z" fill="#a8e6cf"/>
  <path d="M64 40C46.3 40 40 46.3 40 64C40 81.7 46.3 88 64 88C81.7 88 88 81.7 88 64C88 46.3 81.7 40 64 40ZM64 80C52.9 80 48 75.1 48 64C48 52.9 52.9 48 64 48C75.1 48 80 52.9 80 64C80 75.1 75.1 80 64 80Z" fill="#a8e6cf"/>
</svg> 