<?xml version="1.0" encoding="UTF-8"?>
<svg width="128" height="128" viewBox="0 0 128 128" fill="none" xmlns="http://www.w3.org/2000/svg">
  <path d="M64 16C35.3 16 16 35.3 16 64C16 92.7 35.3 112 64 112C92.7 112 112 92.7 112 64C112 35.3 92.7 16 64 16ZM64 104C40.3 104 24 87.7 24 64C24 40.3 40.3 24 64 24C87.7 24 104 40.3 104 64C104 87.7 87.7 104 64 104Z" fill="#a8e6cf"/>
  <path d="M64 32C46.3 32 32 46.3 32 64C32 81.7 46.3 96 64 96C81.7 96 96 81.7 96 64C96 46.3 81.7 32 64 32ZM64 88C52.9 88 40 75.1 40 64C40 52.9 52.9 40 64 40C75.1 40 88 52.9 88 64C88 75.1 75.1 88 64 88Z" fill="#a8e6cf"/>
</svg> 